# xmcd
#
# Track frame offsets: 
#        150
#        22022
#        37454
#        48201
#        60359
#        76439
#        93139
#        107346
#        120071
#        129781
#        152116
#        168093
#        189100
#        205124
#        220539
#        237168
#
# Disc length: 3380 seconds
#
# Revision: 2
# Processed by: cddbd v1.5.2PL0 Copyright (c) Steve Scherf et al.
# Submitted via: ExactAudioCopyFreeDBPlugin 1.0
#
DISCID=b60d3210
DTITLE=Various Artist - An Americana Christmas
DYEAR=2014
DGENRE=Holiday
TTITLE0=Luther Dickinson - Hark! The Herald Angels Sing
TTITLE1=John Prine - Everything is Cool
TTITLE2=Robert Ellis - Pretty Paper
TTITLE3=Emmylou Harris - The First Noël
TTITLE4=Johnny Cash - The Gifts They Gave
TTITLE5=Corb Lund - Just Me and These Ponies (For Christmas This Year)
TTITLE6=Dwight Yoakam - Run Run Rudolph
TTITLE7=Bob Dylan - Must Be Santa
TTITLE8=Valerie June - Winter Wonderland
TTITLE9=Ronnie Fauss - Everybody Deserves a Merry Christmas
TTITLE10=Max Gomez - Season of My Memory
TTITLE11=Ben Keith - Les Trois Cloches (ft Neil and Pegi Young)
TTITLE12=The Common Linnets - At Christmas Time
TTITLE13=Nikki Lane - FaLaLaLaLove Ya
TTITLE14=Old 97's - Here it is Christmas Time
TTITLE15=The Band - Christmas Must Be Tonight
EXTD=
EXTT0=
EXTT1=
EXTT2=
EXTT3=
EXTT4=
EXTT5=
EXTT6=
EXTT7=
EXTT8=
EXTT9=
EXTT10=
EXTT11=
EXTT12=
EXTT13=
EXTT14=
EXTT15=
PLAYORDER=
